<?xml version="1.0" standalone="no"?>
<!DOCTYPE svg PUBLIC "-//W3C//DTD SVG 20010904//EN"
 "http://www.w3.org/TR/2001/REC-SVG-20010904/DTD/svg10.dtd">
<svg version="1.0" xmlns="http://www.w3.org/2000/svg"
 width="64.000000pt" height="64.000000pt" viewBox="0 0 64.000000 64.000000"
 preserveAspectRatio="xMidYMid meet">

<g transform="translate(0.000000,64.000000) scale(0.100000,-0.100000)"
fill="#000000" stroke="none">
<path d="M145 621 c-89 -42 -125 -109 -125 -236 l0 -85 30 0 30 0 0 75 c0 48
-4 75 -11 75 -17 0 -1 50 28 89 32 42 84 64 140 59 39 -3 43 -1 41 17 -4 28
-79 32 -133 6z"/>
<path d="M320 525 l0 -75 55 0 55 0 0 -37 0 -37 38 37 c35 34 43 37 95 37 l57
0 0 75 0 75 -150 0 -150 0 0 -75z m90 5 c0 -11 -7 -20 -15 -20 -8 0 -15 9 -15
20 0 11 7 20 15 20 8 0 15 -9 15 -20z m78 -3 c2 -12 -3 -17 -17 -17 -15 0 -21
6 -21 21 0 25 33 22 38 -4z m72 3 c0 -11 -7 -20 -15 -20 -8 0 -15 9 -15 20 0
11 7 20 15 20 8 0 15 -9 15 -20z"/>
<path d="M158 541 c-26 -21 -51 -74 -41 -85 4 -3 27 -6 53 -6 39 0 51 5 79 34
45 47 39 70 -20 74 -33 2 -52 -2 -71 -17z"/>
<path d="M251 436 c-21 -22 -33 -26 -83 -26 l-58 0 0 -35 0 -35 50 0 c43 0 50
-3 50 -20 0 -17 -7 -20 -41 -20 -43 0 -45 -14 -4 -30 19 -7 24 -18 27 -51 6
-79 68 -77 68 2 0 32 4 41 24 49 35 13 56 49 56 97 0 38 -2 42 -27 45 -19 2
-29 10 -33 26 l-5 24 -24 -26z"/>
<path d="M67 214 c-37 -20 -47 -50 -47 -140 l0 -74 205 0 205 0 0 81 c0 44 -5
89 -10 100 -13 24 -61 49 -95 49 -21 0 -25 -5 -25 -28 0 -18 -11 -38 -30 -57
-16 -16 -30 -37 -30 -47 0 -10 -7 -18 -15 -18 -8 0 -15 8 -15 18 0 10 -13 31
-30 47 -19 19 -30 39 -30 57 0 24 -4 28 -27 28 -16 -1 -41 -8 -56 -16z"/>
</g>
</svg>
